<?xml version="1.0" standalone="no"?>
<!DOCTYPE svg PUBLIC "-//W3C//DTD SVG 20010904//EN"
 "http://www.w3.org/TR/2001/REC-SVG-20010904/DTD/svg10.dtd">
<svg version="1.0" xmlns="http://www.w3.org/2000/svg"
 width="820.000000pt" height="948.000000pt" viewBox="0 0 820.000000 948.000000"
 preserveAspectRatio="xMidYMid meet">

<g transform="translate(0.000000,948.000000) scale(0.100000,-0.100000)"
fill="#000000" stroke="none">
<path d="M3905 9052 c-27 -9 -61 -25 -74 -34 -12 -9 -167 -151 -343 -315 -175
-164 -327 -299 -336 -301 -9 -1 -177 29 -373 68 -196 38 -378 70 -405 70 -137
0 -254 -89 -302 -230 -11 -31 -50 -232 -88 -447 l-68 -392 -391 -188 c-358
-172 -395 -192 -446 -243 -85 -84 -109 -180 -73 -299 8 -29 98 -215 200 -413
l185 -360 -128 -252 c-70 -138 -157 -309 -193 -379 l-65 -128 0 -87 c0 -76 4
-95 29 -147 56 -113 82 -131 502 -332 l379 -182 71 -406 c82 -462 87 -479 184
-568 63 -59 144 -97 206 -97 19 0 223 32 454 70 231 39 428 70 438 70 12 0
152 -123 348 -306 205 -191 347 -316 379 -332 44 -24 61 -27 150 -27 85 0 107
4 148 24 31 15 137 106 285 245 131 122 280 260 332 308 52 49 102 88 113 88
10 0 211 -32 445 -71 294 -48 443 -69 478 -66 70 7 140 42 200 102 88 88 95
111 165 555 34 217 65 400 70 406 5 6 179 91 387 189 207 98 396 192 419 208
81 57 113 123 113 233 0 95 -19 146 -102 265 -36 52 -145 211 -243 354 l-179
259 193 381 c217 428 228 461 198 566 -19 63 -61 126 -109 162 -18 14 -204
107 -413 208 -209 100 -383 185 -387 188 -4 4 -24 99 -44 211 -19 113 -51 293
-70 400 -26 150 -41 209 -64 257 -55 111 -184 203 -288 203 -20 0 -233 -32
-473 -72 l-436 -72 -289 269 c-159 149 -313 291 -342 317 -92 81 -232 110
-347 70z"/>
<path d="M1473 4148 c-15 -18 -1364 -2731 -1360 -2734 2 -2 181 21 398 52 796
111 1183 164 1185 161 1 -1 104 -182 229 -402 125 -220 304 -534 397 -698 94
-165 174 -295 178 -290 4 4 145 289 313 633 167 344 422 866 566 1161 143 294
261 538 261 541 0 3 -118 113 -261 243 l-261 237 -341 -52 c-384 -59 -434 -61
-591 -15 -260 75 -471 272 -551 515 -10 30 -41 190 -69 355 -41 240 -54 300
-67 303 -9 2 -21 -3 -26 -10z"/>
<path d="M6645 3955 c-88 -374 -114 -467 -155 -549 -79 -162 -199 -287 -352
-366 -184 -96 -317 -102 -734 -35 -154 25 -284 45 -290 45 -7 0 -115 -93 -241
-207 -125 -115 -246 -222 -267 -240 l-40 -32 111 -228 c481 -988 1026 -2099
1032 -2106 5 -5 35 38 68 95 242 413 734 1253 736 1255 2 1 32 -2 67 -7 36 -5
229 -32 430 -60 201 -28 394 -55 430 -60 185 -28 653 -91 655 -88 2 2 -1058
2107 -1349 2678 l-53 104 -48 -199z"/>
</g>
</svg>
